<svg width="994" height="186" viewBox="0 0 994 186" fill="none" xmlns="http://www.w3.org/2000/svg">
<path d="M989.344 97.2174H961.721L961.721 2.0874H989.344L989.344 97.2174Z" fill="#B8B21A"/>
<g filter="url(#filter0_d_593_26564)">
<path d="M961.725 96.8984H989.348L989.348 161.342H961.725L961.725 96.8984Z" fill="#CEC825"/>
</g>
<path fill-rule="evenodd" clip-rule="evenodd" d="M501.937 114.673L527.164 114.728H598.573L598.871 114.132C599.041 113.792 599.151 113.365 599.232 112.923C599.317 112.462 599.384 111.906 599.436 111.263C599.54 109.976 599.591 108.277 599.591 106.178C599.591 90.3652 595.293 77.6963 586.587 68.2969C577.862 58.7416 565.77 54.0146 550.456 54.0146C537.228 54.0146 525.716 58.9886 515.968 68.8739C506.326 78.7912 501.523 91.4619 501.523 106.784C501.523 109.502 501.661 112.132 501.937 114.673ZM573.737 95.4067H527.816C528.416 90.3729 530.624 85.9426 534.467 82.1003C538.543 77.8962 543.909 75.7592 550.658 75.7592C558.136 75.7592 563.679 77.7946 567.455 81.6961C571.173 85.4137 573.273 89.9705 573.737 95.4067Z" fill="#262626"/>
<g filter="url(#filter1_d_593_26564)">
<path fill-rule="evenodd" clip-rule="evenodd" d="M577.812 118.517C576.624 123.153 574.521 126.995 571.518 130.075C566.421 135.3 560.273 137.897 553.014 137.897C545.756 137.897 539.67 135.291 534.709 130.075C530.996 126.363 528.614 121.533 527.612 115.545L527.427 114.604L501.922 114.469L502.09 115.713C503.412 127.657 508.152 137.786 516.309 146.057C525.926 155.944 538.19 160.874 553.014 160.874C567.71 160.874 579.976 155.936 589.722 146.054C594.662 140.975 598.338 135.189 600.739 128.701L601.081 127.777L578.127 117.287L577.812 118.517Z" fill="#0D0D0D"/>
</g>
<path fill-rule="evenodd" clip-rule="evenodd" d="M464.252 160.565H491.26V53.6268H464.252V160.565Z" fill="#262626"/>
<path fill-rule="evenodd" clip-rule="evenodd" d="M460.385 18.033C460.385 22.7796 462.082 26.8674 465.448 30.2334C468.814 33.5994 472.902 35.297 477.649 35.297C482.528 35.297 486.69 33.607 490.064 30.2334C493.43 26.8674 495.128 22.7796 495.128 18.033C495.128 13.1542 493.438 8.99141 490.064 5.61779C486.69 2.24416 482.528 0.554199 477.649 0.554199C472.889 0.554199 468.799 2.33336 465.439 5.84167C462.079 9.20593 460.385 13.2907 460.385 18.033Z" fill="#262626"/>
<path fill-rule="evenodd" clip-rule="evenodd" d="M287.077 147.056C297.621 157.747 310.886 163.084 326.786 163.084C342.826 163.084 356.095 157.749 366.501 147.051C377.042 136.217 382.297 122.599 382.297 106.284C382.297 89.9706 377.042 76.4217 366.498 65.7293C356.093 55.0331 342.824 49.6992 326.786 49.6992C310.886 49.6992 297.621 55.036 287.077 65.7267C276.676 76.4205 271.49 89.9742 271.49 106.284C271.49 122.594 276.681 136.222 287.077 147.056ZM326.786 138.44C318.937 138.44 312.289 135.633 306.776 129.988C301.44 124.235 298.713 116.379 298.713 106.284C298.713 96.1802 301.444 88.9574 306.766 83.499C312.281 77.8463 318.932 75.036 326.786 75.036C334.639 75.036 341.233 77.8659 346.601 83.5091C352.061 88.9688 354.859 96.1879 354.859 106.284C354.859 116.527 352.058 124.373 346.591 129.977C341.223 135.62 334.639 138.44 326.786 138.44Z" fill="#262626"/>
<g filter="url(#filter2_d_593_26564)">
<path fill-rule="evenodd" clip-rule="evenodd" d="M354.85 108.4L354.858 107.243C354.859 107.115 354.86 106.987 354.86 106.859C354.86 96.7623 352.061 89.0653 346.602 83.6056C341.234 77.9624 334.639 75.1325 326.786 75.1325C318.933 75.1325 312.281 77.9428 306.766 83.5955C301.445 89.0539 298.713 96.7546 298.713 106.859C298.713 106.987 298.738 108.038 298.758 108.4H271.517L271.491 106.859C271.49 106.726 271.491 106.992 271.491 106.859C271.491 90.5486 276.677 76.418 287.077 65.7243C297.622 55.0336 310.887 49.6968 326.786 49.6968C342.825 49.6968 356.093 55.0307 366.498 65.727C377.043 76.4194 382.297 90.5451 382.297 106.859C382.297 106.992 382.297 107.124 382.296 107.257L382.29 108.4H354.85Z" fill="#0D0D0D"/>
</g>
<path d="M146.325 39.5078C138.78 27.0296 129.107 17.6373 117.304 11.3715C105.53 5.12066 92.738 1.99805 78.9488 1.99805C65.1597 1.99805 52.3681 5.12066 40.5933 11.3715C28.7896 17.6377 19.1169 27.0306 11.5713 39.5099C4.14525 51.8866 0.447266 66.2094 0.447266 82.4334C0.447266 98.6578 4.14839 113.055 11.5713 125.572C19.1169 138.051 28.7896 147.444 40.5933 153.71C52.3681 159.961 65.1597 163.084 78.9488 163.084C93.2909 163.084 106.646 159.437 118.646 152.62L118.651 152.616L99.9598 132.011L99.8344 132.115C93.624 134.892 86.6685 136.291 78.9488 136.291C65.3512 136.291 53.6759 131.607 43.8635 122.217C34.1118 112.742 29.1737 99.5334 29.1737 82.4334C29.1737 65.3312 34.119 52.1915 43.8662 42.8621C53.6805 33.3283 65.3549 28.5758 78.9488 28.5758C92.5427 28.5758 104.223 33.3341 114.037 42.8679C123.925 52.1984 128.939 65.336 128.939 82.4334C128.939 95.5688 125.76 106.684 119.453 115.837L119.429 115.857L138.353 136.719C151.24 122.024 157.665 103.904 157.665 82.4334C157.665 66.2065 153.896 51.8852 146.325 39.5078Z" fill="#262626"/>
<g filter="url(#filter3_d_593_26564)">
<path fill-rule="evenodd" clip-rule="evenodd" d="M140.016 176.168L74.9938 104.485L93.7135 87.505L158.736 159.188L140.016 176.168Z" fill="#0D0D0D"/>
</g>
<path fill-rule="evenodd" clip-rule="evenodd" d="M236.774 119.273C236.195 124.598 234.326 129.016 231.167 132.526C227.443 136.823 222.071 138.972 215.052 138.972C207.89 138.972 202.59 136.752 199.152 132.311C195.714 127.87 193.995 122.14 193.995 115.121V53.6689H169.07V119.634C169.07 131.666 172.58 141.622 179.599 149.5C186.761 157.379 196.43 161.318 208.606 161.318C214.909 161.318 220.782 160.029 226.225 157.451C230.797 155.341 234.313 152.56 236.774 149.107V119.273Z" fill="#262626"/>
<g filter="url(#filter4_d_593_26564)">
<rect x="236.711" y="53.6689" width="25.0861" height="107.673" fill="#0D0D0D"/>
</g>
<path fill-rule="evenodd" clip-rule="evenodd" d="M640.167 53.6697L640.194 64.9387C640.358 64.7126 640.026 65.1592 640.194 64.9387C643.187 61.006 646.834 57.9538 651.134 55.8023C656.883 52.8548 663.006 51.3799 669.489 51.3799C682.066 51.3799 691.807 55.3409 698.52 63.3962C705.172 71.3788 708.455 81.6122 708.455 93.9984V161.327H681.233V98.2957C681.233 91.4623 679.555 86.1539 676.333 82.2611C673.184 78.3246 668.126 76.2387 660.894 76.2387C654.314 76.2387 649.289 78.4833 645.668 82.908C642.145 87.2458 640.341 92.8449 640.341 99.7998V161.327H613.119V53.6697H640.167Z" fill="#262626"/>
<g filter="url(#filter5_d_593_26564)">
<path d="M613.145 53.6694H640.204V161.343H613.145V53.6694Z" fill="#0D0D0D"/>
</g>
<path d="M402.977 79.0718V129.592C402.977 139.562 405.854 147.555 411.704 153.405C417.555 159.107 425.534 161.896 435.496 161.896C442.015 161.896 447.274 161.103 451.2 159.442L451.901 159.145V136.355L450.527 136.63C447.734 137.189 444.945 137.467 442.157 137.467C437.719 137.467 434.702 136.494 432.857 134.782C431.02 132.935 429.984 129.93 429.984 125.509V78.0976H451.686V53.6685L429.506 53.6333L402.977 79.0718Z" fill="#262626"/>
<g filter="url(#filter6_d_593_26564)">
<path fill-rule="evenodd" clip-rule="evenodd" d="M430.274 22.1963V46.8955C430.274 64.9778 415.616 79.6364 397.533 79.6364H383.605V53.2139H397.533C401.023 53.2139 403.852 50.3851 403.852 46.8955V22.1963H430.274Z" fill="#0D0D0D"/>
</g>
<path d="M734.17 79.0713V129.591C734.17 139.561 737.047 147.555 742.897 153.405C748.748 159.106 756.728 161.896 766.69 161.896C773.209 161.896 778.468 161.102 782.393 159.442L783.094 159.145V136.355L781.72 136.63C778.928 137.188 776.138 137.467 773.351 137.467C768.913 137.467 765.895 136.494 764.05 134.781C762.214 132.935 761.177 129.929 761.177 125.509V78.0971H782.879V53.668L760.7 53.6328L734.17 79.0713Z" fill="#262626"/>
<g filter="url(#filter7_d_593_26564)">
<path fill-rule="evenodd" clip-rule="evenodd" d="M761.467 22.1963V46.8955C761.467 64.9778 746.809 79.6364 728.727 79.6364H714.799V53.2139H728.727C732.216 53.2139 735.045 50.3851 735.045 46.8955V22.1963H761.467Z" fill="#0D0D0D"/>
</g>
<path fill-rule="evenodd" clip-rule="evenodd" d="M905.465 122.252L920.093 161.307L950.224 161.269L887.804 2.02148H856.331L819.338 97.1174L847.048 97.1191L837.656 122.252H905.465ZM847.048 97.1191L871.501 31.4565L895.955 97.1191H847.048Z" fill="#B8B21A"/>
<g filter="url(#filter8_d_593_26564)">
<path d="M819.337 97.1167L847.048 97.1167L823.185 161.322H794.172L819.337 97.1167Z" fill="#CEC825"/>
</g>
<defs>
<filter id="filter0_d_593_26564" x="957.635" y="96.8984" width="35.8031" height="72.6234" filterUnits="userSpaceOnUse" color-interpolation-filters="sRGB">
<feFlood flood-opacity="0" result="BackgroundImageFix"/>
<feColorMatrix in="SourceAlpha" type="matrix" values="0 0 0 0 0 0 0 0 0 0 0 0 0 0 0 0 0 0 127 0" result="hardAlpha"/>
<feOffset dy="4.09002"/>
<feGaussianBlur stdDeviation="2.04501"/>
<feComposite in2="hardAlpha" operator="out"/>
<feColorMatrix type="matrix" values="0 0 0 0 0 0 0 0 0 0 0 0 0 0 0 0 0 0 0.15 0"/>
<feBlend mode="normal" in2="BackgroundImageFix" result="effect1_dropShadow_593_26564"/>
<feBlend mode="normal" in="SourceGraphic" in2="effect1_dropShadow_593_26564" result="shape"/>
</filter>
<filter id="filter1_d_593_26564" x="497.604" y="114.469" width="107.794" height="55.041" filterUnits="userSpaceOnUse" color-interpolation-filters="sRGB">
<feFlood flood-opacity="0" result="BackgroundImageFix"/>
<feColorMatrix in="SourceAlpha" type="matrix" values="0 0 0 0 0 0 0 0 0 0 0 0 0 0 0 0 0 0 127 0" result="hardAlpha"/>
<feOffset dy="4.31811"/>
<feGaussianBlur stdDeviation="2.15905"/>
<feComposite in2="hardAlpha" operator="out"/>
<feColorMatrix type="matrix" values="0 0 0 0 0 0 0 0 0 0 0 0 0 0 0 0 0 0 0.15 0"/>
<feBlend mode="normal" in2="BackgroundImageFix" result="effect1_dropShadow_593_26564"/>
<feBlend mode="normal" in="SourceGraphic" in2="effect1_dropShadow_593_26564" result="shape"/>
</filter>
<filter id="filter2_d_593_26564" x="266.98" y="49.6968" width="119.826" height="67.8082" filterUnits="userSpaceOnUse" color-interpolation-filters="sRGB">
<feFlood flood-opacity="0" result="BackgroundImageFix"/>
<feColorMatrix in="SourceAlpha" type="matrix" values="0 0 0 0 0 0 0 0 0 0 0 0 0 0 0 0 0 0 127 0" result="hardAlpha"/>
<feOffset dy="4.59519"/>
<feGaussianBlur stdDeviation="2.25492"/>
<feComposite in2="hardAlpha" operator="out"/>
<feColorMatrix type="matrix" values="0 0 0 0 0 0 0 0 0 0 0 0 0 0 0 0 0 0 0.25 0"/>
<feBlend mode="normal" in2="BackgroundImageFix" result="effect1_dropShadow_593_26564"/>
<feBlend mode="normal" in="SourceGraphic" in2="effect1_dropShadow_593_26564" result="shape"/>
</filter>
<filter id="filter3_d_593_26564" x="70.399" y="87.5049" width="92.9326" height="97.8535" filterUnits="userSpaceOnUse" color-interpolation-filters="sRGB">
<feFlood flood-opacity="0" result="BackgroundImageFix"/>
<feColorMatrix in="SourceAlpha" type="matrix" values="0 0 0 0 0 0 0 0 0 0 0 0 0 0 0 0 0 0 127 0" result="hardAlpha"/>
<feOffset dy="4.59519"/>
<feGaussianBlur stdDeviation="2.29759"/>
<feComposite in2="hardAlpha" operator="out"/>
<feColorMatrix type="matrix" values="0 0 0 0 0 0 0 0 0 0 0 0 0 0 0 0 0 0 0.25 0"/>
<feBlend mode="normal" in2="BackgroundImageFix" result="effect1_dropShadow_593_26564"/>
<feBlend mode="normal" in="SourceGraphic" in2="effect1_dropShadow_593_26564" result="shape"/>
</filter>
<filter id="filter4_d_593_26564" x="232.201" y="50.2866" width="34.1056" height="116.693" filterUnits="userSpaceOnUse" color-interpolation-filters="sRGB">
<feFlood flood-opacity="0" result="BackgroundImageFix"/>
<feColorMatrix in="SourceAlpha" type="matrix" values="0 0 0 0 0 0 0 0 0 0 0 0 0 0 0 0 0 0 127 0" result="hardAlpha"/>
<feOffset dy="1.12746"/>
<feGaussianBlur stdDeviation="2.25492"/>
<feComposite in2="hardAlpha" operator="out"/>
<feColorMatrix type="matrix" values="0 0 0 0 0 0 0 0 0 0 0 0 0 0 0 0 0 0 0.25 0"/>
<feBlend mode="normal" in2="BackgroundImageFix" result="effect1_dropShadow_593_26564"/>
<feBlend mode="normal" in="SourceGraphic" in2="effect1_dropShadow_593_26564" result="shape"/>
</filter>
<filter id="filter5_d_593_26564" x="608.635" y="50.287" width="36.0783" height="116.693" filterUnits="userSpaceOnUse" color-interpolation-filters="sRGB">
<feFlood flood-opacity="0" result="BackgroundImageFix"/>
<feColorMatrix in="SourceAlpha" type="matrix" values="0 0 0 0 0 0 0 0 0 0 0 0 0 0 0 0 0 0 127 0" result="hardAlpha"/>
<feOffset dy="1.12746"/>
<feGaussianBlur stdDeviation="2.25492"/>
<feComposite in2="hardAlpha" operator="out"/>
<feColorMatrix type="matrix" values="0 0 0 0 0 0 0 0 0 0 0 0 0 0 0 0 0 0 0.25 0"/>
<feBlend mode="normal" in2="BackgroundImageFix" result="effect1_dropShadow_593_26564"/>
<feBlend mode="normal" in="SourceGraphic" in2="effect1_dropShadow_593_26564" result="shape"/>
</filter>
<filter id="filter6_d_593_26564" x="379.01" y="22.1963" width="55.8583" height="66.6303" filterUnits="userSpaceOnUse" color-interpolation-filters="sRGB">
<feFlood flood-opacity="0" result="BackgroundImageFix"/>
<feColorMatrix in="SourceAlpha" type="matrix" values="0 0 0 0 0 0 0 0 0 0 0 0 0 0 0 0 0 0 127 0" result="hardAlpha"/>
<feOffset dy="4.59519"/>
<feGaussianBlur stdDeviation="2.29759"/>
<feComposite in2="hardAlpha" operator="out"/>
<feColorMatrix type="matrix" values="0 0 0 0 0 0 0 0 0 0 0 0 0 0 0 0 0 0 0.25 0"/>
<feBlend mode="normal" in2="BackgroundImageFix" result="effect1_dropShadow_593_26564"/>
<feBlend mode="normal" in="SourceGraphic" in2="effect1_dropShadow_593_26564" result="shape"/>
</filter>
<filter id="filter7_d_593_26564" x="710.204" y="22.1963" width="55.8583" height="66.6303" filterUnits="userSpaceOnUse" color-interpolation-filters="sRGB">
<feFlood flood-opacity="0" result="BackgroundImageFix"/>
<feColorMatrix in="SourceAlpha" type="matrix" values="0 0 0 0 0 0 0 0 0 0 0 0 0 0 0 0 0 0 127 0" result="hardAlpha"/>
<feOffset dy="4.59519"/>
<feGaussianBlur stdDeviation="2.29759"/>
<feComposite in2="hardAlpha" operator="out"/>
<feColorMatrix type="matrix" values="0 0 0 0 0 0 0 0 0 0 0 0 0 0 0 0 0 0 0.25 0"/>
<feBlend mode="normal" in2="BackgroundImageFix" result="effect1_dropShadow_593_26564"/>
<feBlend mode="normal" in="SourceGraphic" in2="effect1_dropShadow_593_26564" result="shape"/>
</filter>
<filter id="filter8_d_593_26564" x="790.082" y="97.1167" width="61.057" height="72.3856" filterUnits="userSpaceOnUse" color-interpolation-filters="sRGB">
<feFlood flood-opacity="0" result="BackgroundImageFix"/>
<feColorMatrix in="SourceAlpha" type="matrix" values="0 0 0 0 0 0 0 0 0 0 0 0 0 0 0 0 0 0 127 0" result="hardAlpha"/>
<feOffset dy="4.09002"/>
<feGaussianBlur stdDeviation="2.04501"/>
<feComposite in2="hardAlpha" operator="out"/>
<feColorMatrix type="matrix" values="0 0 0 0 0 0 0 0 0 0 0 0 0 0 0 0 0 0 0.15 0"/>
<feBlend mode="normal" in2="BackgroundImageFix" result="effect1_dropShadow_593_26564"/>
<feBlend mode="normal" in="SourceGraphic" in2="effect1_dropShadow_593_26564" result="shape"/>
</filter>
</defs>
</svg>
